<?xml version="1.0" encoding="utf-8"?>
<!-- www.vectorico.com  -->
<svg version="1.1" id="Sad" xmlns="http://www.w3.org/2000/svg" xmlns:xlink="http://www.w3.org/1999/xlink" x="0px" y="0px"
	 viewBox="0 0 64 64" style="enable-background:new 0 0 64 64;" xml:space="preserve">
<style type="text/css">
	.st0{fill:#FFD972;}
	.st1{fill:#252C37;}
	.st2{fill:#5890FF;}
</style>
<title>Facebook Sad</title>
<path class="st0" d="M64,32c0,17.7-14.3,32-32,32C14.3,64,0,49.7,0,32C0,14.3,14.3,0,32,0C49.7,0,64,14.3,64,32"/>
<path class="st1" d="M39.7,51.9c-0.5,0-1-0.3-1.2-0.7c-0.1-0.1-1.9-3.1-6.4-3.1c-4.6,0-6.6,3.1-6.6,3.1c-0.4,0.7-1.3,0.9-2,0.4
	s-0.9-1.3-0.4-2c0.1-0.2,2.9-4.4,9-4.4c6.2,0,8.8,4.3,8.9,4.5c0.4,0.7,0.2,1.6-0.5,2C40.2,51.9,39.9,51.9,39.7,51.9"/>
<path class="st1" d="M51.7,29.6c-0.6,0-1.1-0.3-1.3-0.9c0,0-0.6-1.3-2.1-2.2C47,25.7,45,25.9,44.4,26c-0.8,0.1-1.5-0.4-1.7-1.2
	c-0.1-0.8,0.4-1.5,1.2-1.7c0.3-0.1,3.4-0.6,5.8,0.9c2.4,1.4,3.2,3.4,3.3,3.6c0.3,0.7-0.1,1.6-0.8,1.9C52,29.6,51.9,29.6,51.7,29.6"
	/>
<path class="st1" d="M12.4,29.5c-0.1,0-0.1,0-0.2,0c-0.8-0.1-1.4-0.8-1.3-1.6c0-0.2,0.3-2.4,3.1-4c2.4-1.4,5.4-0.9,5.8-0.8
	c0.8,0.1,1.3,0.9,1.1,1.7c-0.1,0.8-0.9,1.3-1.7,1.1c-0.6-0.1-2.5-0.3-3.7,0.5c-1.5,0.9-1.7,1.8-1.7,1.8
	C13.7,28.9,13.1,29.5,12.4,29.5"/>
<path class="st1" d="M22,34.5c0,2.4-1.7,4.3-3.9,4.3c-2.1,0-3.9-1.9-3.9-4.3c0-2.4,1.7-4.3,3.9-4.3C20.3,30.2,22,32.1,22,34.5"/>
<path class="st1" d="M49.9,34.5c0,2.4-1.7,4.3-3.9,4.3c-2.1,0-3.9-1.9-3.9-4.3c0-2.4,1.7-4.3,3.9-4.3C48.2,30.2,49.9,32.1,49.9,34.5
	"/>
<path class="st2" d="M50.6,47.2c0,0-4.5,8.5-4.5,12.3c0,3.8,3.5,4.5,4.5,4.5c1,0,4.8-0.5,4.8-4.5C55.4,55.6,50.6,47.2,50.6,47.2"/>
</svg>
