<?xml version="1.0" encoding="utf-8"?>
<!-- www.vectorico.com -->
<svg version="1.1" id="Wow" xmlns="http://www.w3.org/2000/svg" xmlns:xlink="http://www.w3.org/1999/xlink" x="0px" y="0px"
	 viewBox="0 0 64 64" style="enable-background:new 0 0 64 64;" xml:space="preserve">
<style type="text/css">
	.st0{fill:#FFD972;}
	.st1{fill:#252C37;}
</style>
<title>Facebook Wow</title>
<path class="st0" d="M64,32c0,17.7-14.3,32-32,32C14.3,64,0,49.7,0,32C0,14.3,14.3,0,32,0C49.7,0,64,14.3,64,32"/>
<path class="st1" d="M50.3,11.2c-0.5,0-0.9-0.2-1.2-0.6c0,0-1.4-1.9-3.1-1.9c-0.7,0-1.2,0.1-1.5,0.2C44,9.1,43.6,9,43.2,8.8l-0.1,0
	c-1-0.6-0.9-2,0.2-2.5C44,6,44.9,5.8,46,5.8c3.3,0,5.4,3,5.5,3.1c0.5,0.7,0.3,1.5-0.4,2C50.9,11.1,50.6,11.2,50.3,11.2"/>
<path class="st1" d="M13.2,11.2c-0.3,0-0.6-0.1-0.9-0.3c-0.6-0.5-0.8-1.4-0.3-2c0.2-0.3,2.3-3.1,5.2-3.1c3,0,4.9,1.5,5.1,1.7
	c0.6,0.5,0.7,1.4,0.2,2c-0.5,0.6-1.4,0.7-2,0.2c0,0-1.3-1-3.2-1c-1.2,0-2.6,1.4-2.9,1.9C14.1,11,13.7,11.2,13.2,11.2"/>
<path class="st1" d="M21.8,24.7c-0.6,3.6-3,6.2-5.5,5.8c-2.5-0.4-4-3.6-3.4-7.2s3-6.2,5.5-5.8C20.8,17.8,22.3,21.1,21.8,24.7"/>
<path class="st1" d="M51.2,23.4c0.6,3.6-0.9,6.9-3.4,7.2c-2.5,0.4-4.9-2.2-5.5-5.8c-0.6-3.6,0.9-6.8,3.4-7.2
	C48.1,17.2,50.6,19.8,51.2,23.4"/>
<path class="st1" d="M41.3,44.5c0,6.9-4.1,12.5-9.1,12.5c-5,0-9.1-5.6-9.1-12.5c0-6.9,4.1-12.5,9.1-12.5
	C37.2,32,41.3,37.6,41.3,44.5"/>
</svg>
